<?xml version="1.0" encoding="UTF-8" standalone="no"?>
<!-- Created with Inkscape (http://www.inkscape.org/) -->

<svg
   width="85mm"
   height="28mm"
   viewBox="0 0 85 28"
   version="1.1"
   id="svg4433"
   inkscape:version="1.4 (e7c3feb100, 2024-10-09)"
   sodipodi:docname="aldi.svg"
   xmlns:inkscape="http://www.inkscape.org/namespaces/inkscape"
   xmlns:sodipodi="http://sodipodi.sourceforge.net/DTD/sodipodi-0.dtd"
   xmlns="http://www.w3.org/2000/svg"
   xmlns:svg="http://www.w3.org/2000/svg"
   xmlns:rdf="http://www.w3.org/1999/02/22-rdf-syntax-ns#"
   xmlns:cc="http://creativecommons.org/ns#"
   xmlns:dc="http://purl.org/dc/elements/1.1/">
  <defs
     id="defs4427" />
  <sodipodi:namedview
     id="base"
     pagecolor="#ffffff"
     bordercolor="#666666"
     borderopacity="1.0"
     inkscape:pageopacity="0.0"
     inkscape:pageshadow="2"
     inkscape:zoom="0.5"
     inkscape:cx="183"
     inkscape:cy="38"
     inkscape:document-units="mm"
     inkscape:current-layer="svg4433"
     showgrid="false"
     fit-margin-top="0"
     fit-margin-left="0"
     fit-margin-right="0"
     fit-margin-bottom="0"
     inkscape:window-width="1920"
     inkscape:window-height="1020"
     inkscape:window-x="0"
     inkscape:window-y="26"
     inkscape:window-maximized="1"
     inkscape:showpageshadow="2"
     inkscape:pagecheckerboard="0"
     inkscape:deskcolor="#d1d1d1" />
  <metadata
     id="metadata4430">
    <rdf:RDF>
      <cc:Work
         rdf:about="">
        <dc:format>image/svg+xml</dc:format>
        <dc:type
           rdf:resource="http://purl.org/dc/dcmitype/StillImage" />
      </cc:Work>
    </rdf:RDF>
  </metadata>
  <g
     id="g1"
     transform="translate(-7.725004)">
    <path
       inkscape:connector-curvature="0"
       id="path3936"
       style="fill:#ffffff;fill-opacity:1;fill-rule:nonzero;stroke:none;stroke-width:0.282222"
       d="m 24.815247,12.747189 h -4.23232 l 2.06388,-4.4788803 z m 3.68635,7.43269 h 9.14599 L 27.311707,1.5856146e-4 h -9.22579 L 7.749496,20.179879 h 9.14653 l 0.971951,-2.12111 h 9.66112 z m 10.33808,0 h 17.132345 v -5.83003 H 48.051149 V 1.5856146e-4 h -9.211472 z m 33.970794,-10.09041 c 0,2.42326 -1.83437,4.38531 -4.099674,4.38531 H 66.768004 V 5.7057988 h 1.944994 c 2.265307,0 4.097473,1.9631599 4.097473,4.3836702 m 8.330893,0.002 C 81.141364,4.5185086 76.65643,-1.4385376e-6 71.124152,-1.4385376e-6 H 57.718884 V 20.179739 h 13.405268 c 5.532278,0 10.017212,-4.51741 10.017212,-10.08821 M 92.250504,8.5614624e-6 H 83.17882 V 20.179739 h 9.071684 z" />
    <path
       d="M 7.725004,28.069931 H 92.274996 V 23.063139 H 7.725004 Z"
       style="fill:#ffffff;fill-opacity:1;fill-rule:nonzero;stroke:none;stroke-width:0.282222"
       id="path3938"
       inkscape:connector-curvature="0" />
  </g>
</svg>
