<?xml version="1.0" encoding="UTF-8" standalone="no"?>
<svg
   version="1.1"
   id="Layer_1"
   x="0px"
   y="0px"
   width="470"
   height="311"
   viewBox="0 0 470 311.00001"
   enable-background="new 0 0 708.661 827.717"
   xml:space="preserve"
   sodipodi:docname="carrefour.svg"
   inkscape:version="1.4 (e7c3feb100, 2024-10-09)"
   xmlns:inkscape="http://www.inkscape.org/namespaces/inkscape"
   xmlns:sodipodi="http://sodipodi.sourceforge.net/DTD/sodipodi-0.dtd"
   xmlns="http://www.w3.org/2000/svg"
   xmlns:svg="http://www.w3.org/2000/svg"><defs
   id="defs1" /><sodipodi:namedview
   id="namedview1"
   pagecolor="#ffffff"
   bordercolor="#000000"
   borderopacity="0.25"
   inkscape:showpageshadow="2"
   inkscape:pageopacity="0.0"
   inkscape:pagecheckerboard="0"
   inkscape:deskcolor="#d1d1d1"
   inkscape:zoom="0.98131897"
   inkscape:cx="345.96294"
   inkscape:cy="138.58898"
   inkscape:window-width="1920"
   inkscape:window-height="1020"
   inkscape:window-x="0"
   inkscape:window-y="26"
   inkscape:window-maximized="1"
   inkscape:current-layer="Layer_1" />
<g
   id="g1"
   transform="translate(-0.1004229,-0.02068731)"><path
     style="fill:#ffffff"
     inkscape:connector-curvature="0"
     d="M 138.87428,10.52814 10.598671,134.6247 c -6.4066471,5.44012 -10.4982481,11.82836 -10.4982481,20.96888 0,9.09909 4.096204,15.51034 10.4982481,20.99189 L 138.87428,300.64061 c 0.82384,0.84225 1.62007,1.17823 2.29663,1.17823 1.21505,0 2.05271,-1.10459 2.01589,-2.40249 -0.0368,-0.76401 -0.3682,-1.64309 -1.12761,-2.4025 -30.1094,-37.40892 -52.017179,-80.3132 -52.017179,-140.96923 0,-60.692849 21.907779,-104.439383 52.017179,-141.875922 0.75941,-0.750203 1.09079,-1.615469 1.12761,-2.39789 0.0414,-1.325513 -0.80084,-2.3978897 -2.01589,-2.3978897 -0.67656,-0.013807 -1.47279,0.3175709 -2.29663,1.1552217"
     id="path15-9" /><path
     style="fill:#ffffff"
     inkscape:connector-curvature="0"
     d="m 237.49153,0.02068731 c -50.22682,0 -69.85178,71.17728969 -69.85178,156.01473269 0,84.86505 19.62496,155.09423 69.85178,155.09423 30.14161,0 55.83263,-17.6505 55.91548,-32.1575 0.0138,-3.17571 -1.21045,-6.21795 -3.87529,-8.87357 -14.28608,-13.80283 -19.87349,-27.59645 -19.91491,-39.77 -0.0921,-23.2379 20.06679,-40.54781 38.65159,-40.54781 25.54834,0 40.61685,20.0806 40.61685,46.08459 0,24.64166 -10.49825,45.1641 -21.92159,61.59954 -0.45104,0.67196 -0.65355,1.42216 -0.65355,2.08032 0.009,1.28869 0.76861,2.34726 1.90542,2.34726 0.69037,0 1.50041,-0.3682 2.38408,-1.25648 L 458.90744,176.58087 c 6.40664,-5.47695 10.49824,-11.8928 10.49824,-20.99189 0,-9.13592 -4.0962,-15.52876 -10.49824,-20.96888 L 330.59961,10.523537 c -0.87907,-0.8790726 -1.6891,-1.2518731 -2.38408,-1.2518731 -1.14601,0 -1.89622,1.0677741 -1.90542,2.3610701 0,0.662757 0.20251,1.403755 0.65355,2.084922 11.41874,16.412429 21.92159,36.957881 21.92159,61.581127 0,25.985577 -15.06851,46.084587 -40.61685,46.084587 -18.5848,0 -38.74364,-17.2961 -38.65159,-40.538603 0.0414,-12.173549 5.62883,-25.980977 19.91491,-39.769995 2.66484,-2.669436 3.88909,-5.684057 3.87529,-8.864368 C 293.32416,17.680387 267.63314,0.02068731 237.49153,0.02068731"
     id="path17-4" /></g></svg>
