<?xml version="1.0" encoding="UTF-8" standalone="no"?>
<svg
   version="1.1"
   preserveAspectRatio="none"
   x="0px"
   y="0px"
   width="145"
   height="120"
   viewBox="0 0 145 120"
   id="svg6"
   sodipodi:docname="delhaize.svg"
   inkscape:version="1.4 (e7c3feb100, 2024-10-09)"
   xmlns:inkscape="http://www.inkscape.org/namespaces/inkscape"
   xmlns:sodipodi="http://sodipodi.sourceforge.net/DTD/sodipodi-0.dtd"
   xmlns:xlink="http://www.w3.org/1999/xlink"
   xmlns="http://www.w3.org/2000/svg"
   xmlns:svg="http://www.w3.org/2000/svg">
  <sodipodi:namedview
     id="namedview6"
     pagecolor="#ffffff"
     bordercolor="#000000"
     borderopacity="0.25"
     inkscape:showpageshadow="2"
     inkscape:pageopacity="0.0"
     inkscape:pagecheckerboard="0"
     inkscape:deskcolor="#d1d1d1"
     inkscape:zoom="2.7276923"
     inkscape:cx="91.102651"
     inkscape:cy="60.124083"
     inkscape:window-width="1920"
     inkscape:window-height="1020"
     inkscape:window-x="0"
     inkscape:window-y="26"
     inkscape:window-maximized="1"
     inkscape:current-layer="svg6" />
  <defs
     id="defs2">
    <g
       id="lion_0_Layer0_0_FILL">
      <path
         fill="#FFFFFF"
         stroke="none"
         d="M 8.3,-33.55 V -46.9 h 48.75 l 7.65,5.75 v -14.1 H -0.05 v 28.5 h 55.8 V -14 h -66.3 v -34.4 l -6.7,2.8 5.2,-14.05 -12.7,5.4 h -10.1 v 1.65 H -45.5 l -1.5,3.55 h -13.55 l 1.9,8.2 10.45,-0.95 3.85,1.2 0.95,4.1 -26.7,-0.7 -2.25,6.7 3.55,1.2 2.1,-4.35 23.85,0.65 -6.95,7.9 -7.55,-4.1 -2.65,2.5 5.6,7.85 -13.45,44.05 7.55,-4.15 5.75,10.2 -10.7,17.35 -4.3,3.5 -2.5,7.55 h 21.65 l -1.75,-7.15 15,-21.6 7.35,18.25 -7.65,4.7 -1.5,5.8 h 25.6 l 1.4,-7.05 -7.4,-11.55 9,-13.2 H 9.05 L 35.7,16.5 17.25,50.3 10.3,52.6 9.1,59.65 h 22.45 l 1.2,-7.6 14.7,-21.05 10.6,11.5 -3.2,8.5 -7.95,1.75 -2.95,6.9 H 67.1 l 5.3,-16.5 -7.7,-31 v -39.2 l -7.25,-6.5 z"
         id="path1" />
    </g>
    <g
       id="delh_0_Layer0_0_FILL">
      <path
         fill="#bc0000"
         stroke="none"
         d="m -139.95,-9.8 v -30.25 h 27.9 V -56.5 h -45.4 V 56.55 h 46.65 V 39.8 h -29.15 V 5.95 h 20.6 V -9.8 h -20.6 m 57.6,-46.7 h -17.5 V 56.55 H -55.7 V 40 h -26.65 v -96.5 m -98.2,3.95 q -6.1,-3.9 -16.35,-3.95 h -25.2 V 56.55 h 25.2 q 10.25,-0.05 16.35,-3.95 6.1,-3.9 8.8,-10.8 2.7,-6.85 2.6,-15.75 v -52 q 0.1,-8.95 -2.6,-15.8 -2.7,-6.8 -8.8,-10.8 m -8.4,15.4 q 2.3,3.25 2.15,9.9 V 27.3 q 0.15,6.7 -2.15,10 -2.3,3.3 -8.6,3.3 h -7.05 v -81.15 h 7.05 q 6.3,0 8.6,3.4 M 8.15,56.55 V -56.5 H -9.35 V -8.9 H -28 V -56.5 H -45.5 V 56.55 H -28 V 7.7 H -9.35 V 56.55 H 8.15 M 193,-9.8 v -30.25 h 27.9 V -56.5 H 175.5 V 56.55 h 46.65 V 39.8 H 193 V 5.95 h 20.6 V -9.8 H 193 m -76,-30.15 h 28.55 L 114.2,44.2 v 12.35 h 49.6 V 40 h -30.3 l 31,-84.1 V -56.5 H 117 v 16.55 M 102.5,-56.5 H 84.95 V 56.55 H 102.5 V -56.5 m -45.55,0 H 36.25 L 17.7,56.55 H 34.6 L 37.65,33.1 h 17.8 l 3.1,23.45 h 16.9 L 56.95,-56.5 M 53.1,17 H 40 l 6.65,-46.65 z"
         id="path2" />
    </g>
  </defs>
  <g
     transform="matrix(0.99971008,0,0,1.0062866,72.35,60)"
     id="g3">
    <g
       id="g2">
      <use
         xlink:href="#lion_0_Layer0_0_FILL"
         id="use2" />
    </g>
  </g>
  <g
     transform="matrix(1.0005341,0,0,1.000412,419.85,55.95)"
     id="g4" />
</svg>
